<?xml version="1.0" standalone="no"?>
<!DOCTYPE svg PUBLIC "-//W3C//DTD SVG 20010904//EN"
 "http://www.w3.org/TR/2001/REC-SVG-20010904/DTD/svg10.dtd">
<svg version="1.0" xmlns="http://www.w3.org/2000/svg"
 width="200.000000pt" height="200.000000pt" viewBox="0 0 200.000000 200.000000"
 preserveAspectRatio="xMidYMid meet">

<g transform="translate(0.000000,200.000000) scale(0.100000,-0.100000)"
fill="#000000" stroke="none">
<path d="M960 1575 c0 -8 7 -15 16 -15 14 0 14 3 4 15 -7 8 -14 15 -16 15 -2
0 -4 -7 -4 -15z"/>
<path d="M1017 1584 c-8 -8 1 -24 14 -24 5 0 9 7 9 15 0 15 -12 20 -23 9z"/>
<path d="M1072 1561 c-10 -6 -10 -10 3 -21 13 -11 15 -9 15 9 0 24 0 24 -18
12z"/>
<path d="M910 1544 c0 -14 3 -14 15 -4 8 7 15 14 15 16 0 2 -7 4 -15 4 -8 0
-15 -7 -15 -16z"/>
<path d="M450 1515 c23 -61 76 -95 148 -95 88 0 100 -7 137 -80 36 -72 81
-117 148 -151 47 -24 77 -48 77 -61 0 -5 -10 -13 -22 -18 -21 -8 -20 -9 10 -9
19 -1 32 4 32 12 0 23 -38 75 -76 103 -81 61 -112 100 -125 160 -15 67 -33 78
-147 88 -81 7 -135 26 -170 59 l-23 22 11 -30z"/>
<path d="M1539 1523 c-24 -28 -93 -52 -170 -59 -113 -10 -133 -21 -147 -84
-15 -65 -40 -101 -98 -141 -46 -32 -104 -101 -104 -126 0 -8 12 -13 33 -12 29
0 30 1 10 9 -13 5 -23 13 -23 18 0 13 30 37 77 61 67 34 112 79 148 151 37 73
49 80 137 80 71 0 125 34 147 93 12 31 9 34 -10 10z"/>
<path d="M870 1505 c12 -15 30 -12 30 6 0 5 -10 9 -21 9 -18 0 -19 -2 -9 -15z"/>
<path d="M1106 1505 c4 -8 7 -15 9 -15 1 0 8 7 15 15 10 13 9 15 -8 15 -15 0
-20 -5 -16 -15z"/>
<path d="M1120 1460 c0 -13 5 -18 15 -14 8 4 15 10 15 14 0 4 -7 10 -15 14
-10 4 -15 -1 -15 -14z"/>
<path d="M850 1461 c0 -5 7 -11 15 -15 9 -3 15 0 15 9 0 8 -7 15 -15 15 -8 0
-15 -4 -15 -9z"/>
<path d="M474 1408 c34 -47 86 -61 169 -42 28 6 30 8 12 15 -11 4 -43 8 -70 8
-29 1 -67 9 -88 20 -36 18 -36 18 -23 -1z"/>
<path d="M861 1417 c-9 -12 -7 -16 9 -20 21 -5 25 0 11 21 -6 10 -10 10 -20
-1z"/>
<path d="M1120 1415 c0 -8 7 -15 16 -15 14 0 14 3 4 15 -7 8 -14 15 -16 15 -2
0 -4 -7 -4 -15z"/>
<path d="M1500 1409 c-20 -11 -56 -19 -85 -20 -27 0 -59 -4 -70 -8 -18 -7 -16
-9 12 -15 53 -12 110 -9 133 7 18 12 59 60 48 56 -2 -1 -19 -10 -38 -20z"/>
<path d="M873 1360 c-11 -17 -11 -18 7 -12 20 7 28 24 13 29 -4 2 -14 -6 -20
-17z"/>
<path d="M1107 1373 c-12 -12 -7 -21 14 -26 17 -5 18 -3 7 11 -7 9 -13 18 -14
20 0 1 -4 -1 -7 -5z"/>
<path d="M920 1330 c0 -13 5 -18 15 -14 12 5 13 10 4 20 -15 19 -19 18 -19 -6z"/>
<path d="M1070 1340 c-13 -9 -13 -11 0 -20 15 -10 25 0 18 20 -2 6 -8 6 -18 0z"/>
<path d="M512 1322 c32 -23 80 -24 133 -3 l50 20 -101 -2 c-87 -2 -98 -4 -82
-15z"/>
<path d="M1355 1319 c53 -21 101 -20 133 3 16 11 5 13 -82 15 l-101 2 50 -20z"/>
<path d="M1027 1321 c-17 -6 -17 -9 -4 -19 12 -10 16 -9 20 8 3 11 4 20 4 19
-1 0 -10 -4 -20 -8z"/>
<path d="M970 1305 c0 -8 4 -15 9 -15 5 0 11 7 15 15 3 9 0 15 -9 15 -8 0 -15
-7 -15 -15z"/>
<path d="M630 1284 c-25 -8 -60 -13 -78 -10 -44 7 -31 -11 19 -24 34 -9 46 -8
89 12 80 37 60 51 -30 22z"/>
<path d="M1290 1292 c0 -4 22 -17 50 -30 43 -20 55 -21 89 -12 48 13 66 33 23
24 -17 -3 -55 1 -85 10 -61 18 -77 20 -77 8z"/>
<path d="M690 1234 c-19 -8 -53 -15 -74 -16 -31 0 -36 -2 -22 -10 32 -18 81
-12 126 15 50 30 30 37 -30 11z"/>
<path d="M1280 1223 c45 -27 94 -33 126 -15 14 8 9 10 -22 10 -21 1 -56 8 -76
16 -60 26 -78 19 -28 -11z"/>
<path d="M713 1180 c-24 -10 -43 -24 -43 -30 0 -13 37 -13 46 1 3 6 20 19 38
30 40 25 13 24 -41 -1z"/>
<path d="M1246 1181 c18 -11 35 -24 38 -30 9 -14 46 -14 46 -1 0 12 -76 49
-100 50 -8 0 -1 -9 16 -19z"/>
<path d="M773 1155 c-18 -8 -33 -19 -33 -25 0 -16 16 -12 56 15 40 27 28 32
-23 10z"/>
<path d="M1204 1145 c40 -27 56 -31 56 -14 0 10 -59 39 -81 39 -7 0 5 -11 25
-25z"/>
<path d="M824 1126 c-10 -8 -16 -17 -13 -20 3 -4 17 2 30 13 27 23 13 28 -17
7z"/>
<path d="M1159 1119 c13 -11 27 -17 30 -13 7 7 -28 34 -43 34 -6 -1 0 -10 13
-21z"/>
<path d="M306 958 c-3 -7 -12 -58 -21 -113 -9 -55 -19 -108 -22 -118 -4 -16 0
-18 29 -15 32 3 33 5 41 58 13 88 18 90 42 15 20 -65 23 -70 52 -73 35 -3 33
-8 63 162 15 90 14 96 -19 96 -27 0 -29 -3 -36 -55 -3 -30 -10 -57 -15 -60 -4
-3 -17 21 -27 52 -18 53 -22 58 -51 61 -20 2 -34 -2 -36 -10z"/>
<path d="M560 962 c0 -5 -9 -58 -20 -118 -11 -60 -20 -115 -20 -121 0 -10 25
-13 90 -13 l90 0 0 30 c0 30 -1 30 -55 30 -48 0 -55 3 -55 19 0 17 8 20 53 23
48 3 52 5 55 31 3 26 2 27 -42 27 -42 0 -46 2 -46 25 0 23 4 24 63 27 56 3 62
5 65 26 3 21 1 22 -87 22 -50 0 -91 -4 -91 -8z"/>
<path d="M785 948 c-3 -13 -13 -72 -24 -131 l-19 -108 32 3 c28 3 32 7 40 51
8 46 9 47 43 47 l36 0 -6 -50 -6 -50 29 0 c17 0 30 1 30 3 1 1 11 59 24 130
l23 127 -32 0 c-32 0 -33 -1 -40 -55 l-6 -55 -40 0 -40 0 6 38 c4 20 9 45 12
55 3 13 -2 17 -26 17 -24 0 -32 -5 -36 -22z"/>
<path d="M1037 948 c-3 -13 -12 -63 -19 -112 l-12 -88 24 -20 c20 -16 35 -19
78 -16 75 7 89 24 112 142 11 54 20 102 20 107 0 5 -13 9 -29 9 -32 0 -30 5
-52 -120 -12 -75 -22 -90 -56 -90 -34 0 -37 17 -19 112 9 47 16 88 16 91 0 4
-13 7 -29 7 -22 0 -30 -6 -34 -22z"/>
<path d="M1295 958 c-2 -7 -11 -56 -20 -108 -9 -52 -19 -105 -22 -117 -5 -23
-4 -23 86 -23 50 0 91 3 91 8 0 4 3 17 6 30 6 21 4 22 -56 22 -53 0 -61 2 -56
16 3 9 6 18 6 20 0 2 23 4 50 4 49 0 50 1 50 30 0 29 -2 30 -45 30 -45 0 -50
5 -39 34 5 12 21 16 65 16 56 0 59 1 59 25 0 25 -1 25 -85 25 -60 0 -87 -4
-90 -12z"/>
<path d="M1507 883 c-34 -184 -34 -173 1 -173 30 0 30 1 42 70 6 39 13 70 15
70 2 0 14 -31 26 -70 22 -67 24 -70 54 -70 l31 0 18 108 c9 59 20 117 23 130
4 19 1 22 -26 22 -33 0 -32 2 -49 -90 l-8 -45 -23 68 c-22 65 -24 67 -56 67
l-32 0 -16 -87z"/>
</g>
</svg>
